<svg width="448" height="457" viewBox="0 0 448 457" fill="none" xmlns="http://www.w3.org/2000/svg">
<path fill-rule="evenodd" clip-rule="evenodd" d="M410.251 102.311C442.664 151.886 453.809 205.723 444.757 269.043C432.762 352.95 360.528 431.691 277.148 451.751C247.976 458.77 198.034 458.694 170.902 451.587C105.641 434.492 53.0213 390.294 23.4277 327.717C8.10593 295.313 3.56199 278.928 0.793232 246.081C-3.27902 197.803 7.51921 175.313 52.1141 139.19C65.9895 127.953 102.317 93.5674 132.843 62.7782C182.198 12.9985 190.029 6.33991 203.555 2.67673C235.598 -6.00379 296.787 7.15848 338.052 31.6047C360.782 45.071 394.26 77.8585 410.251 102.311ZM329.683 280.212C341.931 255.331 345.076 219.545 337.179 194.905C322.022 147.602 276.583 112.233 231.195 112.414C206.49 112.513 194.545 118.032 163.744 143.597C136.827 165.94 115.558 192.816 110.503 210.875C97.4846 257.372 126.782 313.239 176.346 336.436C232.483 362.702 301.536 337.385 329.683 280.212Z" fill="#FD4C00"/>
</svg>
